<svg xmlns="http://www.w3.org/2000/svg" width="13.458" height="21.351" viewBox="0 0 13.458 21.351">
  <g id="chevron-arrow-down" transform="translate(-82.226 21.351) rotate(-90)">
    <path id="Path_6" data-name="Path 6" d="M20.844,83.761l-1.028-1.028a1.755,1.755,0,0,0-1.247-.507,1.679,1.679,0,0,0-1.234.507l-6.66,6.661-6.66-6.66a1.679,1.679,0,0,0-1.233-.507,1.755,1.755,0,0,0-1.247.507L.521,83.761A1.7,1.7,0,0,0,0,85.008a1.629,1.629,0,0,0,.521,1.233l8.922,8.922a1.629,1.629,0,0,0,1.233.521,1.7,1.7,0,0,0,1.247-.521l8.922-8.922a1.679,1.679,0,0,0,.507-1.233A1.755,1.755,0,0,0,20.844,83.761Z" transform="translate(0)" fill="#66389e"/>
  </g>
</svg>
