<svg xmlns="http://www.w3.org/2000/svg" width="559.355" height="550" viewBox="0 0 559.355 550">
  <g id="Group_83" data-name="Group 83" transform="translate(-1181 -239)">
    <g id="smartphone_1_" data-name="smartphone (1)" transform="translate(1342.837 267)">
      <rect id="Rectangle_29" data-name="Rectangle 29" width="216" height="99" transform="translate(172.509 423)" fill="#c8d2d6"/>
      <path id="Path_7" data-name="Path 7" d="M169.677,146h-144V47h84.834a59.163,59.163,0,0,1,59.166,59.166Z" transform="translate(146.832 376)" fill="#e7eced"/>
      <circle id="Ellipse_1" data-name="Ellipse 1" cx="22.5" cy="22.5" r="22.5" transform="translate(235.509 450)" fill="#7383bf"/>
      <path id="Path_8" data-name="Path 8" d="M70.429,64.318A31.478,31.478,0,1,0,28.975,22.864Z" transform="translate(173.216 32)" fill="#fbce9d"/>
      <path id="Path_9" data-name="Path 9" d="M75.429,69.318A31.478,31.478,0,1,0,33.975,27.864Z" transform="translate(213.216 72)" fill="#fbce9d"/>
      <path id="Path_10" data-name="Path 10" d="M80.429,74.318A31.478,31.478,0,1,0,38.975,32.864Z" transform="translate(253.216 112)" fill="#fbce9d"/>
      <path id="Path_11" data-name="Path 11" d="M85.429,79.318A31.478,31.478,0,1,0,43.975,37.864Z" transform="translate(293.216 152)" fill="#fbce9d"/>
      <path id="Path_12" data-name="Path 12" d="M136.177,89h-90a31.593,31.593,0,0,1-31.5-31.5h0A31.593,31.593,0,0,1,46.177,26h90a31.593,31.593,0,0,1,31.5,31.5h0A31.593,31.593,0,0,1,136.177,89Z" transform="translate(58.832 208)" fill="#fbce9d"/>
      <g id="Group_36" data-name="Group 36" transform="translate(89.845 284.067)">
        <path id="Path_13" data-name="Path 13" d="M307.38,31.563,207.3,131.643a20.642,20.642,0,0,1-29.2,0L90.966,44.5h-59.3c-5.2,2.547-19.4-6.642-13.95-1.971l97.308,96.93c.666.666,1.44,1.143,2.142,1.746V170.5h180v-40.59A67.27,67.27,0,0,0,307.38,31.563Z" transform="translate(-16.492 -31.563)" fill="#f7b563"/>
      </g>
      <path id="Path_14" data-name="Path 14" d="M150.225,2.889,10.212,142.9,78.54,211.23a32.125,32.125,0,0,1,3.357-.342h90a31.5,31.5,0,0,1,0,63H141.2l57.2,57.195,140-140.013Z" transform="translate(23.112 23.112)" fill="#424a60"/>
      <g id="Group_37" data-name="Group 37" transform="translate(7.323 0)">
        <path id="Path_15" data-name="Path 15" d="M173.337,26,153.384,6.048a20.642,20.642,0,0,0-29.2,0L13.371,116.856a20.652,20.652,0,0,0,0,29.205l19.953,19.953Z" transform="translate(-7.323)" fill="#e7eced"/>
        <path id="Path_16" data-name="Path 16" d="M201.077,53.75,171.125,23.8l-140,140.013,29.943,29.943a20.642,20.642,0,0,0,29.2,0L201.068,82.946A20.633,20.633,0,0,0,201.077,53.75Z" transform="translate(183.061 190.384)" fill="#e7eced"/>
      </g>
      <circle id="Ellipse_2" data-name="Ellipse 2" cx="18" cy="18" r="18" transform="translate(294.009 283.5)" fill="#fff"/>
      <path id="Path_17" data-name="Path 17" d="M23.679,43a9,9,0,0,1-6.363-15.363l18-18A9,9,0,0,1,48.042,22.365l-18,18A8.975,8.975,0,0,1,23.679,43Z" transform="translate(58.83 55.998)" fill="#424a60"/>
    </g>
    <g id="twitter" transform="translate(1283 500)">
      <circle id="Ellipse_4" data-name="Ellipse 4" cx="59.5" cy="59.5" r="59.5" fill="#65a2d9"/>
      <path id="Path_26" data-name="Path 26" d="M176.3,139.326c-6.206,5.385-12.377,10.1-17.421,16.7-12.407,14.961-27.568,36.188-48.2,33.024l36.864,36.815a59.5,59.5,0,0,0,56.406-58.89Z" transform="translate(-84.951 -106.944)" fill="#3a7ca5"/>
      <path id="Path_27" data-name="Path 27" d="M176.5,140.7a26.925,26.925,0,0,1-4.7,1.584,14.637,14.637,0,0,0,3.865-6.155.768.768,0,0,0-1.123-.894,27.094,27.094,0,0,1-7.18,2.966,1.816,1.816,0,0,1-.448.056,1.9,1.9,0,0,1-1.258-.48,14.683,14.683,0,0,0-9.716-3.667,15.694,15.694,0,0,0-4.652.718,14.229,14.229,0,0,0-9.589,10.251,15.667,15.667,0,0,0-.348,5.407.527.527,0,0,1-.132.412.546.546,0,0,1-.406.184l-.052,0a38.5,38.5,0,0,1-26.466-14.14.768.768,0,0,0-1.259.1,14.7,14.7,0,0,0,2.39,17.851,13.164,13.164,0,0,1-3.35-1.3.768.768,0,0,0-1.141.663,14.7,14.7,0,0,0,8.578,13.546q-.157,0-.314,0a13.15,13.15,0,0,1-2.474-.236.768.768,0,0,0-.876.988,14.717,14.717,0,0,0,11.626,10.01,27.1,27.1,0,0,1-15.178,4.609h-1.7a1.123,1.123,0,0,0-1.1.848,1.163,1.163,0,0,0,.557,1.285,40.3,40.3,0,0,0,20.253,5.461,40.846,40.846,0,0,0,17.308-3.672,38.218,38.218,0,0,0,12.664-9.489,41.6,41.6,0,0,0,7.755-12.988,41.028,41.028,0,0,0,2.636-14.214v-.224a2.5,2.5,0,0,1,.935-1.945,29.032,29.032,0,0,0,5.839-6.408.768.768,0,0,0-.949-1.128Z" transform="translate(-84.023 -102.943)" fill="#fff"/>
      <path id="Path_28" data-name="Path 28" d="M288.532,140.7a26.939,26.939,0,0,1-4.7,1.584,14.64,14.64,0,0,0,3.866-6.155.768.768,0,0,0-1.123-.894,27.094,27.094,0,0,1-7.18,2.966,1.816,1.816,0,0,1-.448.056,1.9,1.9,0,0,1-1.258-.48,14.683,14.683,0,0,0-9.716-3.667,15.7,15.7,0,0,0-4.652.718,14.228,14.228,0,0,0-7.9,6.17V188.76a38.049,38.049,0,0,0,16.893-11.148,41.6,41.6,0,0,0,7.755-12.987,41.029,41.029,0,0,0,2.636-14.214v-.224a2.5,2.5,0,0,1,.935-1.945,29.033,29.033,0,0,0,5.839-6.408A.768.768,0,0,0,288.532,140.7Z" transform="translate(-196.058 -102.943)" fill="#d1d1d1"/>
    </g>
    <g id="facebook_1_" data-name="facebook (1)" transform="translate(1180.999 383)">
      <circle id="Ellipse_5" data-name="Ellipse 5" cx="59.5" cy="59.5" r="59.5" transform="translate(0.001)" fill="#4e598f"/>
      <path id="Path_29" data-name="Path 29" d="M211.592,148.1l-28.025-28.034c-.464.141-1.623-.4-2.132-.3-12.02,2-23.64,0-35.259,3.205-5.609,1.6-6.01,8.414-8.013,12.822-2.8,8.013-2.4,16.828-6.01,24.441-2.4,5.209-8.013,8.414-10.017,14.424-.668,2.507-.629,5.666-1.384,8.063l28.118,28.1c1.1.06,2.2.094,3.316.094a59.5,59.5,0,0,0,59.5-59.5C211.686,150.306,211.653,149.2,211.592,148.1Z" transform="translate(-92.685 -91.921)" fill="#364270"/>
      <g id="Group_46" data-name="Group 46" transform="translate(25.443 25.442)">
        <path id="Path_30" data-name="Path 30" d="M168.4,109.466H118.646a9.178,9.178,0,0,0-9.178,9.178V168.4a9.178,9.178,0,0,0,9.178,9.178h24.54l.043-24.34H136.9a1.492,1.492,0,0,1-1.492-1.487l-.031-7.846a1.493,1.493,0,0,1,1.492-1.5h6.313v-7.581c0-8.8,5.373-13.588,13.221-13.588h6.44a1.492,1.492,0,0,1,1.492,1.492v6.615a1.492,1.492,0,0,1-1.491,1.492l-3.953,0c-4.268,0-5.095,2.028-5.095,5v6.563h9.378a1.491,1.491,0,0,1,1.482,1.667l-.93,7.846a1.492,1.492,0,0,1-1.482,1.317h-8.406l-.043,24.341h14.6a9.179,9.179,0,0,0,9.178-9.179V118.644a9.178,9.178,0,0,0-9.178-9.178Z" transform="translate(-109.468 -109.466)" fill="#fff"/>
        <path id="Path_31" data-name="Path 31" d="M254.339,322.148l.043-24.34h-.1v24.34Z" transform="translate(-220.62 -254.033)" fill="#fff"/>
      </g>
      <path id="Path_32" data-name="Path 32" d="M279.557,109.466h-25.28V142.41h.063v-7.581c0-8.8,5.373-13.588,13.221-13.588H274a1.492,1.492,0,0,1,1.492,1.492v6.615A1.492,1.492,0,0,1,274,130.84l-3.953,0c-4.268,0-5.095,2.028-5.095,5v6.563h9.378a1.491,1.491,0,0,1,1.482,1.667l-.93,7.846a1.492,1.492,0,0,1-1.482,1.317H265l-.043,24.341h14.6a9.179,9.179,0,0,0,9.178-9.179V118.644A9.178,9.178,0,0,0,279.557,109.466Z" transform="translate(-195.177 -84.024)" fill="#d1d1d1"/>
    </g>
    <g id="instagram_1_" data-name="instagram (1)" transform="translate(1223 239)">
      <circle id="Ellipse_3" data-name="Ellipse 3" cx="59.5" cy="59.5" r="59.5" fill="#db1949"/>
      <path id="Path_20" data-name="Path 20" d="M180.965,127.141a100.164,100.164,0,0,1-21.981.158c-10.418-.8-25.643-5.61-31.253,4.007-9.011,15.395-4.567,35.1-2.467,52.545L156.58,215.16a59.5,59.5,0,0,0,56.207-56.2Z" transform="translate(-93.874 -96.247)" fill="#db1949"/>
      <g id="Group_44" data-name="Group 44" transform="translate(25.443 25.443)">
        <path id="Path_21" data-name="Path 21" d="M157.291,109.468H129.759a20.314,20.314,0,0,0-20.291,20.291v27.532a20.315,20.315,0,0,0,20.292,20.292h27.532a20.315,20.315,0,0,0,20.292-20.292V129.759a20.315,20.315,0,0,0-20.292-20.291Zm13.439,47.823a13.439,13.439,0,0,1-13.439,13.439H129.76a13.439,13.439,0,0,1-13.439-13.439V129.76A13.439,13.439,0,0,1,129.76,116.32h27.532A13.44,13.44,0,0,1,170.73,129.76v27.532Z" transform="translate(-109.468 -109.468)" fill="#fff"/>
        <path id="Path_22" data-name="Path 22" d="M197.819,180.2a17.617,17.617,0,1,0,17.616,17.617A17.637,17.637,0,0,0,197.819,180.2Zm0,28.381a10.765,10.765,0,1,1,10.764-10.764,10.764,10.764,0,0,1-10.764,10.764Z" transform="translate(-163.762 -163.762)" fill="#fff"/>
      </g>
      <g id="Group_45" data-name="Group 45" transform="translate(59.367 25.443)">
        <path id="Path_23" data-name="Path 23" d="M322.22,166.832A4.221,4.221,0,1,1,318,162.611a4.222,4.222,0,0,1,4.221,4.221Z" transform="translate(-300.215 -150.259)" fill="#d1d1d1"/>
        <path id="Path_24" data-name="Path 24" d="M269.325,109.468h-13.9v6.852h13.9a13.44,13.44,0,0,1,13.439,13.439v27.532a13.439,13.439,0,0,1-13.439,13.439h-13.9v6.852h13.9a20.315,20.315,0,0,0,20.291-20.292V129.759A20.314,20.314,0,0,0,269.325,109.468Z" transform="translate(-255.426 -109.468)" fill="#d1d1d1"/>
        <path id="Path_25" data-name="Path 25" d="M255.559,180.2c-.045,0-.089,0-.133,0v6.852c.044,0,.089,0,.133,0a10.765,10.765,0,0,1,0,21.529c-.045,0-.089,0-.133,0v6.852c.045,0,.089,0,.133,0a17.617,17.617,0,0,0,0-35.234Z" transform="translate(-255.426 -163.762)" fill="#d1d1d1"/>
      </g>
    </g>
  </g>
</svg>
