<svg xmlns="http://www.w3.org/2000/svg" width="39.931" height="56.705" viewBox="0 0 39.931 56.705"><defs><style>.a{opacity:0.71;}.b{fill:#fff;}</style></defs><g class="a" transform="translate(-75.726)"><g transform="translate(75.726)"><g transform="translate(0)"><path class="b" d="M95.692,0A20.147,20.147,0,0,0,75.726,20.279V36.427a19.968,19.968,0,1,0,39.931.062V20.279A20.147,20.147,0,0,0,95.692,0ZM111.9,36.489a16.213,16.213,0,1,1-32.421-.063V20.279a16.213,16.213,0,1,1,32.421,0Z" transform="translate(-75.726)"/></g></g><g transform="translate(93.814 15.522)"><path class="b" d="M240.924,140.15a1.878,1.878,0,0,0-1.878,1.878V148.6a1.878,1.878,0,1,0,3.755,0v-6.572A1.878,1.878,0,0,0,240.924,140.15Z" transform="translate(-239.046 -140.15)"/></g></g></svg>