<svg xmlns="http://www.w3.org/2000/svg" width="132.587" height="132.069" viewBox="0 0 132.587 132.069">
  <g id="newsletter" transform="translate(0 -1)">
    <path id="Path_33" data-name="Path 33" d="M67.537,1.415a2.072,2.072,0,0,0-2.486,0L0,50.2v75.875a6.992,6.992,0,0,0,6.992,6.992h119.9a5.7,5.7,0,0,0,5.7-5.7V50.2Z" fill="#8ead5a"/>
    <path id="Path_34" data-name="Path 34" d="M145.942,199H34.072A2.072,2.072,0,0,0,32,201.072v49.72a2.072,2.072,0,0,0,2.072,2.072h111.87a2.072,2.072,0,0,0,2.072-2.072v-49.72A2.072,2.072,0,0,0,145.942,199Z" transform="translate(-23.713 -146.726)" fill="#dbd9e2"/>
    <path id="Path_35" data-name="Path 35" d="M145.942,31H34.072A2.072,2.072,0,0,0,32,33.072v49.72a2.072,2.072,0,0,0,2.072,2.072h111.87a2.072,2.072,0,0,0,2.072-2.072V33.072A2.072,2.072,0,0,0,145.942,31Z" transform="translate(-23.713 -22.231)" fill="#edecf1"/>
    <path id="Path_36" data-name="Path 36" d="M90.007,232.433,32,273.867H150.6a5.7,5.7,0,0,0,5.7-5.7V191Z" transform="translate(-23.713 -140.798)" fill="#bbd492"/>
    <path id="Path_37" data-name="Path 37" d="M204.8,373.49h0l5.317-3.323Z" transform="translate(-151.764 -273.568)" fill="#8ead5a" opacity="0.6"/>
    <path id="Path_38" data-name="Path 38" d="M330,191l-63.6,39.75,63.206,39.5A5.679,5.679,0,0,0,330,268.17V191Z" transform="translate(-197.413 -140.798)" fill="#bbd492"/>
    <path id="Path_39" data-name="Path 39" d="M82.065,351.147l-5.317,3.323L32,387.617H150.6a5.7,5.7,0,0,0,5.3-3.613L92.7,344.5Z" transform="translate(-23.713 -254.547)" fill="#8ead5a" opacity="0.6"/>
    <g id="Group_55" data-name="Group 55" transform="translate(0 50.202)">
      <path id="Path_40" data-name="Path 40" d="M0,191v77.17a5.686,5.686,0,0,0,2.077,4.4l64.217-40.135Z" transform="translate(0 -191)" fill="#bbd492"/>
      <path id="Path_41" data-name="Path 41" d="M8.02,391.135a5.673,5.673,0,0,0,3.62,1.3H132.833a5.673,5.673,0,0,0,3.62-1.3L72.237,351Z" transform="translate(-5.943 -309.566)" fill="#bbd492"/>
    </g>
    <path id="Path_42" data-name="Path 42" d="M362.645,87H346.072A2.072,2.072,0,0,0,344,89.072v20.717a2.072,2.072,0,0,0,2.072,2.072h16.573a2.072,2.072,0,0,0,2.072-2.072V89.072A2.072,2.072,0,0,0,362.645,87Z" transform="translate(-254.918 -63.729)" fill="#f09c48"/>
    <rect id="Rectangle_36" data-name="Rectangle 36" width="12.43" height="16.573" transform="translate(93.225 27.414)" fill="#edbc53"/>
    <g id="Group_56" data-name="Group 56" transform="translate(22.788 23.271)">
      <path id="Path_43" data-name="Path 43" d="M148.079,91.143H90.072a2.072,2.072,0,0,1,0-4.143h58.007a2.072,2.072,0,0,1,0,4.143Z" transform="translate(-88 -87)" fill="#a4a0b8"/>
      <path id="Path_44" data-name="Path 44" d="M121.147,131.143H90.072a2.072,2.072,0,0,1,0-4.143h31.075a2.072,2.072,0,0,1,0,4.143Z" transform="translate(-88 -116.642)" fill="#a4a0b8"/>
      <path id="Path_45" data-name="Path 45" d="M260.717,131.143H242.072a2.072,2.072,0,0,1,0-4.143h18.645a2.072,2.072,0,1,1,0,4.143Z" transform="translate(-200.638 -116.642)" fill="#a4a0b8"/>
      <path id="Path_46" data-name="Path 46" d="M131.505,171.143H90.072a2.072,2.072,0,0,1,0-4.143h41.433a2.072,2.072,0,0,1,0,4.143Z" transform="translate(-88 -146.283)" fill="#a4a0b8"/>
      <path id="Path_47" data-name="Path 47" d="M290.358,171.143h-8.287a2.072,2.072,0,1,1,0-4.143h8.287a2.072,2.072,0,0,1,0,4.143Z" transform="translate(-230.28 -146.283)" fill="#a4a0b8"/>
    </g>
    <g id="Group_57" data-name="Group 57" transform="translate(43.505 68.848)">
      <path id="Path_48" data-name="Path 48" d="M300.43,267.143H290.072a2.072,2.072,0,1,1,0-4.143H300.43a2.072,2.072,0,0,1,0,4.143Z" transform="translate(-256.925 -263)" fill="#928da9"/>
      <path id="Path_49" data-name="Path 49" d="M192.86,267.143H170.072a2.072,2.072,0,1,1,0-4.143H192.86a2.072,2.072,0,0,1,0,4.143Z" transform="translate(-168 -263)" fill="#928da9"/>
      <path id="Path_50" data-name="Path 50" d="M216.287,307.143h-6.215a2.072,2.072,0,0,1,0-4.143h6.215a2.072,2.072,0,0,1,0,4.143Z" transform="translate(-197.642 -292.642)" fill="#928da9"/>
      <path id="Path_51" data-name="Path 51" d="M270.215,307.143h-4.143a2.072,2.072,0,1,1,0-4.143h4.143a2.072,2.072,0,0,1,0,4.143Z" transform="translate(-239.14 -292.642)" fill="#928da9"/>
    </g>
  </g>
</svg>
