<svg xmlns="http://www.w3.org/2000/svg" width="43.817" height="43.818" viewBox="0 0 43.817 43.818">
  <g id="settings-work-tool" transform="translate(-0.003 0)">
    <g id="Group_72" data-name="Group 72" transform="translate(0.003 0)">
      <path id="Path_68" data-name="Path 68" d="M43.683,19.477A1.426,1.426,0,0,0,42.274,18.4a4.838,4.838,0,0,1-3.311-8.42A1.217,1.217,0,0,0,39.1,8.326,21.68,21.68,0,0,0,35.625,4.82a1.219,1.219,0,0,0-1.665.135A5.05,5.05,0,0,1,28.5,6.182a4.867,4.867,0,0,1-2.959-4.757A1.215,1.215,0,0,0,24.461.146,21.873,21.873,0,0,0,19.532.133a1.219,1.219,0,0,0-1.085,1.254,4.875,4.875,0,0,1-3,4.675,5.063,5.063,0,0,1-5.424-1.235,1.222,1.222,0,0,0-1.653-.139,21.762,21.762,0,0,0-3.544,3.5,1.219,1.219,0,0,0,.131,1.665,4.855,4.855,0,0,1,1.225,5.467,5.065,5.065,0,0,1-4.767,2.962A1.191,1.191,0,0,0,.149,19.36,21.948,21.948,0,0,0,.14,24.343,1.449,1.449,0,0,0,1.577,25.42a4.8,4.8,0,0,1,4.508,3A4.872,4.872,0,0,1,4.859,33.84a1.218,1.218,0,0,0-.133,1.651A21.758,21.758,0,0,0,8.192,39a1.218,1.218,0,0,0,1.668-.132,5.042,5.042,0,0,1,5.462-1.229,4.859,4.859,0,0,1,2.964,4.755,1.217,1.217,0,0,0,1.075,1.28,21.805,21.805,0,0,0,4.929.013,1.219,1.219,0,0,0,1.085-1.255,4.87,4.87,0,0,1,3-4.672A5.056,5.056,0,0,1,33.8,38.993a1.224,1.224,0,0,0,1.654.138A21.812,21.812,0,0,0,39,35.627a1.216,1.216,0,0,0-.131-1.665A4.855,4.855,0,0,1,37.638,28.5a4.9,4.9,0,0,1,4.482-2.97l.271.007a1.22,1.22,0,0,0,1.282-1.074A21.929,21.929,0,0,0,43.683,19.477ZM21.946,29.264a7.308,7.308,0,1,1,7.308-7.308A7.316,7.316,0,0,1,21.946,29.264Z" transform="translate(-0.003 0)" fill="#f2f2f2" fill-rule="evenodd"/>
    </g>
  </g>
</svg>
