<svg xmlns="http://www.w3.org/2000/svg" width="140.851" height="165.4" viewBox="0 0 140.851 165.4">
  <g id="shield_1_" data-name="shield (1)" transform="translate(-0.5 0)">
    <path id="Path_77" data-name="Path 77" d="M133.911,110.453a83.447,83.447,0,0,1-19.986,31.135c-10.036,9.8-23.177,17.587-39.06,23.142a11.95,11.95,0,0,1-3.8.67h-.142a12.119,12.119,0,0,1-2.329-.23,12.62,12.62,0,0,1-1.6-.436c-15.9-5.546-29.059-13.33-39.105-23.13A83.289,83.289,0,0,1,7.909,110.476C-.164,88.569.3,64.437.665,45.044l.006-.3c.074-1.6.122-3.283.149-5.141A17.53,17.53,0,0,1,17.328,22.432c19.017-1.061,33.728-7.264,46.3-19.515l.11-.1a10.6,10.6,0,0,1,14.384,0l.107.1c12.572,12.252,27.284,18.454,46.3,19.515a17.53,17.53,0,0,1,16.507,17.173c.026,1.87.075,3.55.149,5.141l0,.126C141.556,64.3,142.012,88.482,133.911,110.453Zm0,0" transform="translate(0)" fill="#00dd80"/>
    <path id="Path_78" data-name="Path 78" d="M281.791,110.456A83.447,83.447,0,0,1,261.8,141.59c-10.036,9.8-23.177,17.587-39.06,23.142a11.95,11.95,0,0,1-3.8.67V0A10.611,10.611,0,0,1,226,2.818l.107.1c12.572,12.252,27.284,18.454,46.3,19.515a17.53,17.53,0,0,1,16.507,17.173c.026,1.87.075,3.55.149,5.141l0,.126C289.435,64.3,289.892,88.485,281.791,110.456Zm0,0" transform="translate(-147.88 -0.002)" fill="#00aa63"/>
    <path id="Path_79" data-name="Path 79" d="M173.338,169.619a41.273,41.273,0,0,1-41.076,41.222h-.145a41.222,41.222,0,1,1,0-82.444h.145A41.273,41.273,0,0,1,173.338,169.619Zm0,0" transform="translate(-61.193 -86.919)" fill="#fff"/>
    <path id="Path_80" data-name="Path 80" d="M260.025,169.619a41.273,41.273,0,0,1-41.076,41.222V128.4A41.273,41.273,0,0,1,260.025,169.619Zm0,0" transform="translate(-147.88 -86.919)" fill="#e1ebf0"/>
    <path id="Path_81" data-name="Path 81" d="M193.667,220.264,175.1,238.832l-4.012,4.012a4.858,4.858,0,0,1-6.866,0l-8.625-8.629a4.852,4.852,0,1,1,6.862-6.862l5.2,5.2L186.8,213.4a4.852,4.852,0,0,1,6.862,6.862Zm0,0" transform="translate(-104.033 -143.5)" fill="#b4d2d7"/>
    <path id="Path_82" data-name="Path 82" d="M237.514,220.264l-18.565,18.568V225.1l11.7-11.7a4.852,4.852,0,1,1,6.862,6.862Zm0,0" transform="translate(-147.88 -143.5)" fill="#6fa5aa"/>
  </g>
</svg>
