<svg id="shopping-cart" xmlns="http://www.w3.org/2000/svg" width="43.692" height="43.692" viewBox="0 0 43.692 43.692">
  <g id="shopping-cart-2" data-name="shopping-cart">
    <path id="Path_67" data-name="Path 67" d="M13.108,34.954a4.369,4.369,0,1,0,4.369,4.369A4.382,4.382,0,0,0,13.108,34.954ZM0,0V4.369H4.369l7.865,16.6L9.175,26.215A7.762,7.762,0,0,0,8.738,28.4a4.382,4.382,0,0,0,4.369,4.369H39.323V28.4H13.981a.47.47,0,0,1-.437-.437v-.219l1.966-3.714H31.677a3.984,3.984,0,0,0,3.714-2.185l7.865-14.2a1.2,1.2,0,0,0,.437-1.092,2.064,2.064,0,0,0-2.185-2.185H9.175L7.209,0ZM34.954,34.954a4.369,4.369,0,1,0,4.369,4.369A4.382,4.382,0,0,0,34.954,34.954Z" fill="#f2f2f2"/>
  </g>
</svg>
