<svg xmlns="http://www.w3.org/2000/svg" width="154.28" height="206.057" viewBox="0 0 154.28 206.057"><defs><style>.a{fill:#c8d2d6;}.a,.b,.c,.d,.e,.f,.g{stroke:#707070;}.b{fill:#e7eced;}.c{fill:#7383bf;}.d{fill:#fbce9d;}.e{fill:#f7b563;}.f{fill:#424a60;}.g{fill:#fff;}</style></defs><g transform="translate(-6.823 0.5)"><rect class="a" width="84.851" height="38.89" transform="translate(72.213 166.167)"/><path class="b" d="M82.244,85.89H25.677V47H59A23.241,23.241,0,0,1,82.244,70.242Z" transform="translate(46.536 119.167)"/><circle class="c" cx="8.839" cy="8.839" r="8.839" transform="translate(96.961 176.773)"/><path class="d" d="M45.259,27.695A12.365,12.365,0,1,0,28.975,11.41Z" transform="translate(54.898 10.142)"/><path class="d" d="M50.259,32.695A12.365,12.365,0,1,0,33.975,16.41Z" transform="translate(67.575 22.819)"/><path class="d" d="M55.259,37.695A12.365,12.365,0,1,0,38.975,21.41Z" transform="translate(80.253 35.497)"/><path class="d" d="M60.259,42.695A12.365,12.365,0,1,0,43.975,26.41Z" transform="translate(92.93 48.174)"/><path class="d" d="M62.406,50.748H27.051A12.411,12.411,0,0,1,14.677,38.374h0A12.411,12.411,0,0,1,27.051,26H62.406A12.411,12.411,0,0,1,74.78,38.374h0A12.411,12.411,0,0,1,62.406,50.748Z" transform="translate(18.646 65.922)"/><g transform="translate(39.74 111.59)"><path class="e" d="M130.762,31.563,91.447,70.877a8.109,8.109,0,0,1-11.469,0L45.748,36.643h-23.3c-2.043,1-7.619-2.609-5.48-.774L55.2,73.946c.262.262.566.449.841.686V86.14h70.709V70.2a26.426,26.426,0,0,0,4.013-38.632Z" transform="translate(-16.492 -31.563)"/></g><path class="f" d="M65.213,2.889l-55,55L37.053,84.732a12.621,12.621,0,0,1,1.319-.134H73.727a12.374,12.374,0,0,1,0,24.748H61.667l22.468,22.468,55-55Z" transform="translate(7.325 7.325)"/><g transform="translate(7.323 0)"><path class="b" d="M72.538,10.214,64.7,2.376a8.109,8.109,0,0,0-11.469,0L9.7,45.9a8.113,8.113,0,0,0,0,11.473l7.838,7.838Z" transform="translate(-7.323)"/><path class="b" d="M97.885,35.564,86.119,23.8l-55,55L42.883,90.562a8.109,8.109,0,0,0,11.469,0L97.881,47.033A8.105,8.105,0,0,0,97.885,35.564Z" transform="translate(53.016 60.339)"/></g><circle class="g" cx="7.071" cy="7.071" r="7.071" transform="translate(119.942 111.367)"/><path class="f" d="M18.213,21.143a3.535,3.535,0,0,1-2.5-6.035l7.071-7.071a3.535,3.535,0,0,1,5,5l-7.071,7.071A3.526,3.526,0,0,1,18.213,21.143Z" transform="translate(18.645 17.748)"/></g></svg>