<svg xmlns="http://www.w3.org/2000/svg" width="470.679" height="178.378" viewBox="0 0 470.679 178.378">
  <g id="Group_47" data-name="Group 47" transform="translate(-244 -1299)">
    <g id="instagram_1_" data-name="instagram (1)" transform="translate(536.3 1299)">
      <ellipse id="Ellipse_3" data-name="Ellipse 3" cx="89.189" cy="89.189" rx="89.189" ry="89.189" fill="#db1949"/>
      <path id="Path_20" data-name="Path 20" d="M210.238,128.014a150.142,150.142,0,0,1-32.949.237c-15.616-1.2-38.438-8.409-46.847,6.006-13.508,23.076-6.846,52.62-3.7,78.764l46.942,46.932a89.194,89.194,0,0,0,84.253-84.238Z" transform="translate(-79.691 -81.705)" fill="#db1949"/>
      <g id="Group_44" data-name="Group 44" transform="translate(38.138 38.138)">
        <path id="Path_21" data-name="Path 21" d="M181.153,109.468H139.884a30.451,30.451,0,0,0-30.416,30.416v41.269a30.451,30.451,0,0,0,30.417,30.417h41.269a30.452,30.452,0,0,0,30.417-30.417V139.884a30.451,30.451,0,0,0-30.417-30.416ZM201.3,181.154A20.145,20.145,0,0,1,181.154,201.3H139.885a20.145,20.145,0,0,1-20.145-20.145V139.885a20.145,20.145,0,0,1,20.145-20.145h41.269A20.146,20.146,0,0,1,201.3,139.885v41.269Z" transform="translate(-109.468 -109.468)" fill="#fff"/>
        <path id="Path_22" data-name="Path 22" d="M206.61,180.2a26.407,26.407,0,1,0,26.407,26.408A26.438,26.438,0,0,0,206.61,180.2Zm0,42.543a16.136,16.136,0,1,1,16.135-16.135,16.135,16.135,0,0,1-16.135,16.135Z" transform="translate(-155.559 -155.559)" fill="#fff"/>
      </g>
      <g id="Group_45" data-name="Group 45" transform="translate(88.989 38.138)">
        <path id="Path_23" data-name="Path 23" d="M326.433,168.939a6.328,6.328,0,1,1-6.328-6.328,6.328,6.328,0,0,1,6.328,6.328Z" transform="translate(-293.448 -144.096)" fill="#d1d1d1"/>
        <path id="Path_24" data-name="Path 24" d="M276.261,109.468H255.426v10.271h20.835a20.146,20.146,0,0,1,20.145,20.145v41.269A20.145,20.145,0,0,1,276.261,201.3H255.426V211.57h20.835a30.451,30.451,0,0,0,30.416-30.417V139.884A30.451,30.451,0,0,0,276.261,109.468Z" transform="translate(-255.426 -109.468)" fill="#d1d1d1"/>
        <path id="Path_25" data-name="Path 25" d="M255.626,180.2c-.067,0-.133,0-.2,0v10.271c.066,0,.133,0,.2,0a16.136,16.136,0,0,1,0,32.271c-.067,0-.133,0-.2,0v10.271c.067,0,.133,0,.2,0a26.407,26.407,0,0,0,0-52.814Z" transform="translate(-255.426 -155.559)" fill="#d1d1d1"/>
      </g>
    </g>
    <g id="twitter" transform="translate(396.896 1299)">
      <ellipse id="Ellipse_4" data-name="Ellipse 4" cx="89.189" cy="89.189" rx="89.189" ry="89.189" fill="#65a2d9"/>
      <path id="Path_26" data-name="Path 26" d="M209.04,139.326c-9.3,8.072-18.553,15.146-26.114,25.033-18.6,22.427-41.324,54.245-72.252,49.5l55.259,55.184a89.188,89.188,0,0,0,84.551-88.275Z" transform="translate(-72.116 -90.786)" fill="#3a7ca5"/>
      <path id="Path_27" data-name="Path 27" d="M209.945,143.993a40.36,40.36,0,0,1-7.04,2.374,21.941,21.941,0,0,0,5.794-9.227,1.151,1.151,0,0,0-1.683-1.341,40.614,40.614,0,0,1-10.763,4.446,2.722,2.722,0,0,1-.672.084,2.855,2.855,0,0,1-1.885-.719,22.01,22.01,0,0,0-14.565-5.5,23.525,23.525,0,0,0-6.973,1.077,21.328,21.328,0,0,0-14.374,15.365,23.485,23.485,0,0,0-.521,8.105.79.79,0,0,1-.2.617.819.819,0,0,1-.608.276c-.025,0-.052,0-.078,0a57.717,57.717,0,0,1-39.671-21.2,1.151,1.151,0,0,0-1.887.147,22.04,22.04,0,0,0,3.583,26.758,19.733,19.733,0,0,1-5.022-1.945,1.152,1.152,0,0,0-1.71.993,22.042,22.042,0,0,0,12.858,20.305q-.235.005-.47,0a19.711,19.711,0,0,1-3.709-.354,1.152,1.152,0,0,0-1.313,1.482,22.06,22.06,0,0,0,17.427,15.005,40.619,40.619,0,0,1-22.751,6.909h-2.545a1.684,1.684,0,0,0-1.648,1.272,1.743,1.743,0,0,0,.835,1.927,60.413,60.413,0,0,0,30.358,8.186,61.227,61.227,0,0,0,25.944-5.5,57.289,57.289,0,0,0,18.983-14.224,62.356,62.356,0,0,0,11.624-19.468,61.5,61.5,0,0,0,3.951-21.306v-.336a3.748,3.748,0,0,1,1.4-2.916,43.519,43.519,0,0,0,8.752-9.606,1.151,1.151,0,0,0-1.423-1.691Z" transform="translate(-71.328 -87.389)" fill="#fff"/>
      <path id="Path_28" data-name="Path 28" d="M305.052,143.993a40.379,40.379,0,0,1-7.04,2.374,21.945,21.945,0,0,0,5.794-9.227,1.151,1.151,0,0,0-1.683-1.341,40.614,40.614,0,0,1-10.763,4.446,2.723,2.723,0,0,1-.672.084,2.855,2.855,0,0,1-1.885-.719,22.01,22.01,0,0,0-14.565-5.5,23.526,23.526,0,0,0-6.973,1.077,21.327,21.327,0,0,0-11.84,9.249v71.587a57.034,57.034,0,0,0,25.323-16.711,62.359,62.359,0,0,0,11.624-19.468,61.5,61.5,0,0,0,3.951-21.306v-.336a3.748,3.748,0,0,1,1.4-2.916,43.519,43.519,0,0,0,8.752-9.606A1.151,1.151,0,0,0,305.052,143.993Z" transform="translate(-166.436 -87.389)" fill="#d1d1d1"/>
    </g>
    <g id="facebook_1_" data-name="facebook (1)" transform="translate(244 1299)">
      <ellipse id="Ellipse_5" data-name="Ellipse 5" cx="89.189" cy="89.189" rx="89.189" ry="89.189" transform="translate(0)" fill="#4e598f"/>
      <path id="Path_29" data-name="Path 29" d="M256.919,162.24l-42.008-42.022c-.7.211-2.432-.6-3.2-.444-18.018,3-35.435,0-52.853,4.8-8.409,2.4-9.009,12.613-12.012,19.219-4.2,12.012-3.6,25.225-9.009,36.636-3.6,7.808-12.012,12.613-15.015,21.622-1,3.757-.942,8.493-2.075,12.086L162.9,256.271c1.646.091,3.3.14,4.971.14a89.189,89.189,0,0,0,89.189-89.189C257.06,165.55,257.01,163.889,256.919,162.24Z" transform="translate(-78.682 -78.033)" fill="#364270"/>
      <g id="Group_46" data-name="Group 46" transform="translate(38.138 38.137)">
        <path id="Path_30" data-name="Path 30" d="M197.812,109.466H123.226a13.758,13.758,0,0,0-13.758,13.758V197.81a13.758,13.758,0,0,0,13.758,13.758h36.785l.064-36.485h-9.48a2.236,2.236,0,0,1-2.236-2.228l-.046-11.761a2.237,2.237,0,0,1,2.237-2.245h9.463V147.485c0-13.187,8.054-20.368,19.818-20.368h9.654a2.237,2.237,0,0,1,2.237,2.237v9.916a2.236,2.236,0,0,1-2.235,2.237l-5.925,0c-6.4,0-7.637,3.04-7.637,7.5v9.838h14.058a2.235,2.235,0,0,1,2.221,2.5l-1.394,11.761a2.236,2.236,0,0,1-2.221,1.974h-12.6l-.064,36.486h21.888a13.759,13.759,0,0,0,13.758-13.758V123.224a13.758,13.758,0,0,0-13.758-13.758Z" transform="translate(-109.468 -109.466)" fill="#fff"/>
        <path id="Path_31" data-name="Path 31" d="M254.369,334.293l.064-36.484h-.156v36.484Z" transform="translate(-203.826 -232.191)" fill="#fff"/>
      </g>
      <path id="Path_32" data-name="Path 32" d="M292.17,109.466H254.277v49.382h.094V147.484c0-13.187,8.054-20.368,19.818-20.368h9.654a2.237,2.237,0,0,1,2.237,2.237v9.916a2.236,2.236,0,0,1-2.235,2.237l-5.925,0c-6.4,0-7.637,3.04-7.637,7.5v9.838H284.34a2.235,2.235,0,0,1,2.221,2.5l-1.394,11.761a2.236,2.236,0,0,1-2.221,1.974h-12.6l-.064,36.486H292.17a13.759,13.759,0,0,0,13.758-13.758V123.224A13.758,13.758,0,0,0,292.17,109.466Z" transform="translate(-165.689 -71.329)" fill="#d1d1d1"/>
    </g>
  </g>
</svg>
