<svg xmlns="http://www.w3.org/2000/svg" width="243.5" height="162.333" viewBox="0 0 243.5 162.333">
  <g id="traffic-sign" transform="translate(0 -70)">
    <g id="XMLID_1188_" transform="translate(40.583 70)">
      <rect id="XMLID_1189_" width="11.595" height="162.333" fill="#cdcdd0"/>
    </g>
    <g id="XMLID_1190_" transform="translate(52.179 70)">
      <rect id="XMLID_1191_" width="11.595" height="162.333" fill="#acabb1"/>
    </g>
    <g id="XMLID_1192_" transform="translate(179.726 70)">
      <rect id="XMLID_1193_" width="11.595" height="162.333" fill="#cdcdd0"/>
    </g>
    <g id="XMLID_1194_" transform="translate(191.321 70)">
      <rect id="XMLID_1195_" width="11.595" height="162.333" fill="#acabb1"/>
    </g>
    <g id="XMLID_1196_" transform="translate(0 87.393)">
      <rect id="XMLID_1197_" width="121.75" height="92.762" fill="#78b9eb"/>
    </g>
    <g id="XMLID_1198_" transform="translate(121.75 87.393)">
      <rect id="XMLID_1199_" width="121.75" height="92.762" fill="#5a8bb0"/>
    </g>
    <g id="XMLID_1200_" transform="translate(17.393 104.786)">
      <rect id="XMLID_1201_" width="208.714" height="57.976" fill="#fff"/>
    </g>
    <g id="XMLID_1202_" transform="translate(35.528 122.295)">
      <g id="XMLID_1203_" transform="translate(0 0.128)">
        <path id="XMLID_1204_" d="M70.816,160.42h5.707L78.5,167.4l2.009-6.983h5.708l-3.731,10.81,1.626,4.719,4.879-15.529h6.76l-8.865,22.64H81.721l-3.221-8.1-3.189,8.1H70.145l-8.864-22.64h6.728l4.91,15.529,1.562-4.719Z" transform="translate(-61.281 -160.42)" fill="#78b9eb"/>
      </g>
      <g id="XMLID_1206_" transform="translate(37.627 0.128)">
        <path id="XMLID_1207_" d="M142.316,177.639v5.421H126.182V160.42h15.847v5.421H132.4v3.189h8.226v5.039H132.4v3.571h9.916Z" transform="translate(-126.182 -160.42)" fill="#78b9eb"/>
      </g>
      <g id="XMLID_1209_" transform="translate(58.257 0.128)">
        <path id="XMLID_1210_" d="M161.766,183.06V160.42h6.218v17.219h10.267v5.421Z" transform="translate(-161.766 -160.42)" fill="#78b9eb"/>
      </g>
      <g id="XMLID_1212_" transform="translate(76.975)">
        <path id="XMLID_1213_" d="M194.051,171.456a11.295,11.295,0,0,1,3.061-7.685,11.623,11.623,0,0,1,3.635-2.583,12.586,12.586,0,0,1,10.57.366,8.83,8.83,0,0,1,3.588,3.588l-4.75,3.38a4,4,0,0,0-.846-1.371,4.279,4.279,0,0,0-1.164-.861,5,5,0,0,0-1.322-.446,7.272,7.272,0,0,0-1.324-.128,4.643,4.643,0,0,0-3.905,1.9,5.924,5.924,0,0,0-.925,1.913,7.714,7.714,0,0,0-.3,2.121,7.292,7.292,0,0,0,.351,2.263,5.912,5.912,0,0,0,1.02,1.914,4.994,4.994,0,0,0,1.643,1.323,4.751,4.751,0,0,0,2.185.495,6.231,6.231,0,0,0,1.307-.144,4.881,4.881,0,0,0,1.292-.478,4.389,4.389,0,0,0,1.115-.861,3.824,3.824,0,0,0,.782-1.291l5.071,3.029a6.467,6.467,0,0,1-1.547,2.233,9.816,9.816,0,0,1-2.36,1.658,12.529,12.529,0,0,1-2.838,1.021,13.1,13.1,0,0,1-2.95.351,10.489,10.489,0,0,1-4.607-1,11.67,11.67,0,0,1-3.6-2.663,12.094,12.094,0,0,1-2.344-3.762A11.55,11.55,0,0,1,194.051,171.456Z" transform="translate(-194.051 -160.2)" fill="#78b9eb"/>
      </g>
      <g id="XMLID_1215_" transform="translate(100.252)">
        <path id="XMLID_1216_" d="M245.647,183.159a10.886,10.886,0,0,1-4.687-.988,11.585,11.585,0,0,1-3.6-2.6,11.748,11.748,0,0,1-2.328-3.683,11.409,11.409,0,0,1-.829-4.273,11.12,11.12,0,0,1,.86-4.3,11.433,11.433,0,0,1,2.407-3.651,11.744,11.744,0,0,1,3.668-2.519,11.316,11.316,0,0,1,4.639-.94,10.886,10.886,0,0,1,4.687.988,11.473,11.473,0,0,1,3.6,2.615,11.718,11.718,0,0,1,2.312,3.7,11.509,11.509,0,0,1,.813,4.241,11,11,0,0,1-.86,4.289,11.621,11.621,0,0,1-2.391,3.635,11.747,11.747,0,0,1-3.652,2.535A11.137,11.137,0,0,1,245.647,183.159Zm-5.134-11.479a7.694,7.694,0,0,0,.319,2.216,5.761,5.761,0,0,0,.957,1.9,4.812,4.812,0,0,0,1.61,1.34,5.453,5.453,0,0,0,4.639-.016,4.7,4.7,0,0,0,1.61-1.371,5.923,5.923,0,0,0,.925-1.929,8.142,8.142,0,0,0,.3-2.2,7.739,7.739,0,0,0-.318-2.216,5.462,5.462,0,0,0-.973-1.881,4.926,4.926,0,0,0-1.626-1.307,4.977,4.977,0,0,0-2.281-.495,4.914,4.914,0,0,0-2.311.51,4.742,4.742,0,0,0-1.61,1.355,5.739,5.739,0,0,0-.941,1.913A7.973,7.973,0,0,0,240.514,171.679Z" transform="translate(-234.2 -160.2)" fill="#78b9eb"/>
      </g>
      <g id="XMLID_1219_" transform="translate(127.483 0.127)">
        <path id="XMLID_1220_" d="M298.293,183.059V171.134L294.5,179.52h-3.317l-3.795-8.386v11.925H281.17v-22.64h6.792l4.879,10.65,4.91-10.65h6.76v22.64h-6.218Z" transform="translate(-281.17 -160.419)" fill="#78b9eb"/>
      </g>
      <g id="XMLID_1222_" transform="translate(156.31 0.128)">
        <path id="XMLID_1223_" d="M347.025,177.639v5.421H330.891V160.42h15.847v5.421h-9.629v3.189h8.226v5.039h-8.226v3.571h9.916Z" transform="translate(-330.891 -160.42)" fill="#78b9eb"/>
      </g>
    </g>
  </g>
</svg>
