<svg xmlns="http://www.w3.org/2000/svg" width="186.999" height="165.4" viewBox="0 0 186.999 165.4">
  <g id="warning_1_" data-name="warning (1)" transform="translate(0 -29.569)">
    <path id="Path_69" data-name="Path 69" d="M183.146,153.509,117.082,42.95a27.47,27.47,0,0,0-47.164,0L3.854,153.509a27.39,27.39,0,0,0-.219,27.64,27.061,27.061,0,0,0,23.8,13.82H159.564a27.06,27.06,0,0,0,23.8-13.82A27.387,27.387,0,0,0,183.146,153.509Z" transform="translate(0)" fill="#e50027"/>
    <path id="Path_70" data-name="Path 70" d="M345.865,181.15a27.061,27.061,0,0,1-23.8,13.82H256V29.57a27.383,27.383,0,0,1,23.582,13.381L345.646,153.51A27.389,27.389,0,0,1,345.865,181.15Z" transform="translate(-162.5 -0.001)" fill="#c1001f"/>
    <path id="Path_71" data-name="Path 71" d="M46.475,203.062a16.032,16.032,0,0,1-14.267-8.279,16.348,16.348,0,0,1,.171-16.7l66-110.469a16.511,16.511,0,0,1,28.363.075L192.759,178.17a16.311,16.311,0,0,1,.118,16.613,16.031,16.031,0,0,1-14.267,8.279H46.475Z" transform="translate(-19.042 -19.061)" fill="#fd003a"/>
    <path id="Path_72" data-name="Path 72" d="M322.067,203.062a16.032,16.032,0,0,0,14.267-8.279,16.313,16.313,0,0,0-.118-16.613L270.2,67.689A16.519,16.519,0,0,0,256,59.6V203.062Z" transform="translate(-162.499 -19.061)" fill="#e50027"/>
    <path id="Path_73" data-name="Path 73" d="M247.905,133.032V176.9a10.968,10.968,0,0,1-21.936,0V133.032a10.968,10.968,0,1,1,21.936,0Z" transform="translate(-143.437 -58.713)" fill="#e1e4fb"/>
    <path id="Path_74" data-name="Path 74" d="M266.968,133.032V176.9A11,11,0,0,1,256,187.873V122.064A11,11,0,0,1,266.968,133.032Z" transform="translate(-162.5 -58.713)" fill="#c5c9f7"/>
    <path id="Path_75" data-name="Path 75" d="M227.406,332.278a16.452,16.452,0,1,0,16.452,16.452A16.43,16.43,0,0,0,227.406,332.278Z" transform="translate(-133.906 -192.15)" fill="#e1e4fb"/>
    <path id="Path_76" data-name="Path 76" d="M272.452,348.73A16.43,16.43,0,0,1,256,365.182v-32.9A16.43,16.43,0,0,1,272.452,348.73Z" transform="translate(-162.5 -192.15)" fill="#c5c9f7"/>
  </g>
</svg>
